<mxfile host="65bd71144e" pages="3">
    <diagram name="orig" id="Et7XhWolcfNVUlykT_v0">
        <mxGraphModel dx="1047" dy="414" grid="1" gridSize="10" guides="1" tooltips="1" connect="1" arrows="1" fold="1" page="1" pageScale="1" pageWidth="850" pageHeight="1100" math="0" shadow="0">
            <root>
                <mxCell id="0"/>
                <mxCell id="1" parent="0"/>
                <mxCell id="4pzJMmgSDrH-Xv818-rp-120" value="" style="group" parent="1" vertex="1" connectable="0">
                    <mxGeometry x="30" y="40" width="814" height="590" as="geometry"/>
                </mxCell>
                <mxCell id="4pzJMmgSDrH-Xv818-rp-119" value="" style="rounded=0;whiteSpace=wrap;html=1;strokeWidth=2;strokeColor=none;" parent="4pzJMmgSDrH-Xv818-rp-120" vertex="1">
                    <mxGeometry x="-14" y="-20" width="828" height="610" as="geometry"/>
                </mxCell>
                <mxCell id="4pzJMmgSDrH-Xv818-rp-1" value="Host Machine [jenkins] &lt;br&gt;Application URL: http://jenkins:8010 or http://127.0.0.1:8010" style="swimlane;whiteSpace=wrap;html=1;fillColor=#647687;strokeColor=#314354;startSize=40;fontColor=#ffffff;" parent="4pzJMmgSDrH-Xv818-rp-120" vertex="1">
                    <mxGeometry width="800" height="560" as="geometry"/>
                </mxCell>
                <mxCell id="4pzJMmgSDrH-Xv818-rp-108" value="" style="rounded=0;whiteSpace=wrap;html=1;strokeColor=#628F33;fontColor=default;fillColor=none;dashed=1;" parent="4pzJMmgSDrH-Xv818-rp-1" vertex="1">
                    <mxGeometry x="20" y="70" width="759" height="470" as="geometry"/>
                </mxCell>
                <mxCell id="4pzJMmgSDrH-Xv818-rp-4" value="Virtual Machine [Docker host] (&lt;font color=&quot;#628f33&quot;&gt;10.7.2.10/24&lt;/font&gt;)" style="swimlane;whiteSpace=wrap;html=1;fillColor=#dae8fc;strokeColor=#6c8ebf;" parent="4pzJMmgSDrH-Xv818-rp-1" vertex="1">
                    <mxGeometry x="92" y="85.8" width="679.65" height="442" as="geometry"/>
                </mxCell>
                <mxCell id="4pzJMmgSDrH-Xv818-rp-26" value="" style="rounded=0;whiteSpace=wrap;html=1;dashed=1;strokeColor=#175182;fillColor=none;" parent="4pzJMmgSDrH-Xv818-rp-4" vertex="1">
                    <mxGeometry x="60" y="63.2" width="608" height="256.8" as="geometry"/>
                </mxCell>
                <mxCell id="4pzJMmgSDrH-Xv818-rp-104" style="edgeStyle=orthogonalEdgeStyle;curved=1;rounded=0;orthogonalLoop=1;jettySize=auto;html=1;exitX=1;exitY=0.5;exitDx=0;exitDy=0;exitPerimeter=0;entryX=0;entryY=0.5;entryDx=0;entryDy=0;fontColor=default;startArrow=classicThin;startFill=1;endArrow=classicThin;endFill=1;" parent="4pzJMmgSDrH-Xv818-rp-4" source="4pzJMmgSDrH-Xv818-rp-68" target="4pzJMmgSDrH-Xv818-rp-77" edge="1">
                    <mxGeometry relative="1" as="geometry"/>
                </mxCell>
                <mxCell id="4pzJMmgSDrH-Xv818-rp-105" style="edgeStyle=orthogonalEdgeStyle;curved=1;rounded=0;orthogonalLoop=1;jettySize=auto;html=1;exitX=0;exitY=0.5;exitDx=0;exitDy=0;exitPerimeter=0;fontColor=default;startArrow=classicThin;startFill=1;endArrow=classicThin;endFill=1;" parent="4pzJMmgSDrH-Xv818-rp-4" source="4pzJMmgSDrH-Xv818-rp-68" target="4pzJMmgSDrH-Xv818-rp-98" edge="1">
                    <mxGeometry relative="1" as="geometry"/>
                </mxCell>
                <mxCell id="4pzJMmgSDrH-Xv818-rp-68" value="" style="sketch=0;aspect=fixed;pointerEvents=1;shadow=0;dashed=0;html=1;strokeColor=none;labelPosition=center;verticalLabelPosition=bottom;verticalAlign=top;align=center;fillColor=#175182;shape=mxgraph.mscae.enterprise.gateway;fontColor=default;" parent="4pzJMmgSDrH-Xv818-rp-4" vertex="1">
                    <mxGeometry x="50" y="127.19999999999999" width="20" height="20" as="geometry"/>
                </mxCell>
                <mxCell id="4pzJMmgSDrH-Xv818-rp-33" value="Jenkins Controller [container]" style="swimlane;whiteSpace=wrap;html=1;fillColor=#647687;strokeColor=#314354;fontColor=#ffffff;" parent="4pzJMmgSDrH-Xv818-rp-4" vertex="1">
                    <mxGeometry x="88" y="79.2" width="200" height="100.8" as="geometry"/>
                </mxCell>
                <mxCell id="4pzJMmgSDrH-Xv818-rp-34" value="Built-in Node" style="sketch=0;pointerEvents=1;shadow=0;dashed=0;html=1;strokeColor=none;labelPosition=center;verticalLabelPosition=bottom;verticalAlign=top;outlineConnect=0;align=center;shape=mxgraph.office.concepts.node_generic;fillColor=#CCCBCB;" parent="4pzJMmgSDrH-Xv818-rp-33" vertex="1">
                    <mxGeometry x="90" y="30.799999999999997" width="40" height="40" as="geometry"/>
                </mxCell>
                <mxCell id="4pzJMmgSDrH-Xv818-rp-77" value=":8080" style="fontStyle=0;labelPosition=right;verticalLabelPosition=middle;align=left;verticalAlign=middle;spacingLeft=2;dashed=1;strokeColor=#175182;fontColor=default;fillColor=none;dashPattern=1 1;" parent="4pzJMmgSDrH-Xv818-rp-33" vertex="1">
                    <mxGeometry y="48.799999999999955" width="20" height="20" as="geometry"/>
                </mxCell>
                <mxCell id="4pzJMmgSDrH-Xv818-rp-84" value=":50000" style="fontStyle=0;labelPosition=right;verticalLabelPosition=middle;align=left;verticalAlign=middle;spacingLeft=2;dashed=1;strokeColor=#175182;fontColor=default;fillColor=none;dashPattern=1 1;" parent="4pzJMmgSDrH-Xv818-rp-33" vertex="1">
                    <mxGeometry x="180" y="48.799999999999955" width="20" height="20" as="geometry"/>
                </mxCell>
                <mxCell id="4pzJMmgSDrH-Xv818-rp-42" style="edgeStyle=orthogonalEdgeStyle;curved=1;rounded=0;orthogonalLoop=1;jettySize=auto;html=1;entryX=0;entryY=0.5;entryDx=0;entryDy=0;exitX=1.4;exitY=0.15;exitDx=0;exitDy=0;exitPerimeter=0;dashed=1;startArrow=none;startFill=0;endArrow=blockThin;endFill=0;" parent="4pzJMmgSDrH-Xv818-rp-4" source="4pzJMmgSDrH-Xv818-rp-84" target="4pzJMmgSDrH-Xv818-rp-44" edge="1">
                    <mxGeometry relative="1" as="geometry">
                        <mxPoint x="187.5" y="133.20000000000005" as="sourcePoint"/>
                    </mxGeometry>
                </mxCell>
                <mxCell id="4pzJMmgSDrH-Xv818-rp-43" value="" style="group" parent="4pzJMmgSDrH-Xv818-rp-4" vertex="1" connectable="0">
                    <mxGeometry x="386.65" y="73.00000000000004" width="263" height="80" as="geometry"/>
                </mxCell>
                <mxCell id="4pzJMmgSDrH-Xv818-rp-44" value="[DIND]" style="swimlane;horizontal=0;whiteSpace=wrap;html=1;dashed=1;strokeColor=#23445d;fillColor=#bac8d3;" parent="4pzJMmgSDrH-Xv818-rp-43" vertex="1">
                    <mxGeometry width="110" height="80" as="geometry"/>
                </mxCell>
                <mxCell id="4pzJMmgSDrH-Xv818-rp-45" value="Alpine Node" style="sketch=0;pointerEvents=1;shadow=0;dashed=0;html=1;strokeColor=none;labelPosition=center;verticalLabelPosition=bottom;verticalAlign=top;outlineConnect=0;align=center;shape=mxgraph.office.concepts.node_generic;fillColor=#175182;" parent="4pzJMmgSDrH-Xv818-rp-44" vertex="1">
                    <mxGeometry x="45" y="16" width="40" height="40" as="geometry"/>
                </mxCell>
                <mxCell id="4pzJMmgSDrH-Xv818-rp-46" value="" style="group" parent="4pzJMmgSDrH-Xv818-rp-43" vertex="1" connectable="0">
                    <mxGeometry x="113" width="150" height="80" as="geometry"/>
                </mxCell>
                <mxCell id="4pzJMmgSDrH-Xv818-rp-47" value="" style="labelPosition=right;align=left;strokeWidth=1;shape=mxgraph.mockup.markup.curlyBrace;html=1;shadow=0;dashed=0;strokeColor=#999999;direction=north;fillColor=#175182;" parent="4pzJMmgSDrH-Xv818-rp-46" vertex="1">
                    <mxGeometry width="20" height="80" as="geometry"/>
                </mxCell>
                <mxCell id="4pzJMmgSDrH-Xv818-rp-48" value="Created during runtime,&lt;br&gt;and destroyed after the job is finished." style="text;strokeColor=none;align=center;fillColor=none;html=1;verticalAlign=middle;whiteSpace=wrap;rounded=0;" parent="4pzJMmgSDrH-Xv818-rp-46" vertex="1">
                    <mxGeometry x="20" y="10" width="130" height="60" as="geometry"/>
                </mxCell>
                <mxCell id="4pzJMmgSDrH-Xv818-rp-69" value="Gateway&lt;br&gt;172.21.0.1" style="text;strokeColor=none;align=center;fillColor=none;html=1;verticalAlign=middle;whiteSpace=wrap;rounded=0;fontColor=default;" parent="4pzJMmgSDrH-Xv818-rp-4" vertex="1">
                    <mxGeometry y="97.2" width="60" height="30" as="geometry"/>
                </mxCell>
                <mxCell id="4pzJMmgSDrH-Xv818-rp-98" value=":8080" style="fontStyle=0;labelPosition=right;verticalLabelPosition=middle;align=left;verticalAlign=middle;spacingLeft=2;strokeColor=#175182;fontColor=default;fillColor=none;dashed=1;dashPattern=1 1;" parent="4pzJMmgSDrH-Xv818-rp-4" vertex="1">
                    <mxGeometry y="194.2" width="20" height="20" as="geometry"/>
                </mxCell>
                <mxCell id="4pzJMmgSDrH-Xv818-rp-101" value="" style="group" parent="4pzJMmgSDrH-Xv818-rp-4" vertex="1" connectable="0">
                    <mxGeometry x="59.99999999999997" y="33.200000000000045" width="355.35" height="30" as="geometry"/>
                </mxCell>
                <mxCell id="4pzJMmgSDrH-Xv818-rp-28" value="Docker Bridge Network [&lt;i&gt;&lt;font color=&quot;#175182&quot;&gt;jenkins_net&lt;/font&gt;&lt;/i&gt;] (CIDR &lt;font color=&quot;#175182&quot;&gt;&lt;b&gt;172.21.0.1/16&lt;/b&gt;&lt;/font&gt;)" style="text;strokeColor=none;align=center;fillColor=none;html=1;verticalAlign=middle;whiteSpace=wrap;rounded=0;" parent="4pzJMmgSDrH-Xv818-rp-101" vertex="1">
                    <mxGeometry x="20.7617647058824" width="334.5882352941177" height="30" as="geometry"/>
                </mxCell>
                <mxCell id="4pzJMmgSDrH-Xv818-rp-27" value="" style="sketch=0;aspect=fixed;html=1;points=[];align=center;image;fontSize=12;image=img/lib/mscae/Virtual_Network.svg;dashed=1;strokeColor=#175182;fillColor=#175182;" parent="4pzJMmgSDrH-Xv818-rp-101" vertex="1">
                    <mxGeometry y="7" width="28.421052631578952" height="15.915789473684212" as="geometry"/>
                </mxCell>
                <mxCell id="hlMscnQdI2Kzjpkfcxst-6" value="Jenkins agent [container]" style="swimlane;whiteSpace=wrap;html=1;fillColor=#bac8d3;strokeColor=#23445d;startSize=30;" parent="4pzJMmgSDrH-Xv818-rp-4" vertex="1">
                    <mxGeometry x="313.88" y="193.2" width="100.24" height="120" as="geometry"/>
                </mxCell>
                <mxCell id="hlMscnQdI2Kzjpkfcxst-7" value="CentOS Node" style="sketch=0;pointerEvents=1;shadow=0;dashed=0;html=1;strokeColor=none;labelPosition=center;verticalLabelPosition=bottom;verticalAlign=top;outlineConnect=0;align=center;shape=mxgraph.office.concepts.node_generic;fillColor=#7FBA42;" parent="hlMscnQdI2Kzjpkfcxst-6" vertex="1">
                    <mxGeometry x="32" y="40.3" width="40" height="40" as="geometry"/>
                </mxCell>
                <mxCell id="hlMscnQdI2Kzjpkfcxst-2" style="edgeStyle=orthogonalEdgeStyle;rounded=0;orthogonalLoop=1;jettySize=auto;html=1;exitX=1;exitY=1;exitDx=0;exitDy=0;curved=1;endArrow=classicThin;endFill=1;entryX=0.5;entryY=0;entryDx=0;entryDy=0;" parent="4pzJMmgSDrH-Xv818-rp-4" source="4pzJMmgSDrH-Xv818-rp-84" target="hlMscnQdI2Kzjpkfcxst-6" edge="1">
                    <mxGeometry relative="1" as="geometry"/>
                </mxCell>
                <mxCell id="hlMscnQdI2Kzjpkfcxst-10" value="Jenkins agent [container]" style="swimlane;whiteSpace=wrap;html=1;fillColor=#bac8d3;strokeColor=#23445d;startSize=30;" parent="4pzJMmgSDrH-Xv818-rp-4" vertex="1">
                    <mxGeometry x="545" y="193.2" width="100.24" height="120" as="geometry"/>
                </mxCell>
                <mxCell id="hlMscnQdI2Kzjpkfcxst-13" value="Ubuntu Node" style="sketch=0;pointerEvents=1;shadow=0;dashed=0;html=1;strokeColor=none;labelPosition=center;verticalLabelPosition=bottom;verticalAlign=top;outlineConnect=0;align=center;shape=mxgraph.office.concepts.node_generic;fillColor=#DA4026;" parent="hlMscnQdI2Kzjpkfcxst-10" vertex="1">
                    <mxGeometry x="30.120000000000008" y="42" width="40" height="40" as="geometry"/>
                </mxCell>
                <mxCell id="hlMscnQdI2Kzjpkfcxst-14" value="Jenkins agent [container]" style="swimlane;whiteSpace=wrap;html=1;fillColor=#bac8d3;strokeColor=#23445d;startSize=30;" parent="4pzJMmgSDrH-Xv818-rp-4" vertex="1">
                    <mxGeometry x="430.03" y="193.2" width="100.24" height="120" as="geometry"/>
                </mxCell>
                <mxCell id="hlMscnQdI2Kzjpkfcxst-16" value="Debian Node" style="sketch=0;pointerEvents=1;shadow=0;dashed=0;html=1;strokeColor=none;fillColor=#505050;labelPosition=center;verticalLabelPosition=bottom;verticalAlign=top;outlineConnect=0;align=center;shape=mxgraph.office.concepts.node_generic;" parent="hlMscnQdI2Kzjpkfcxst-14" vertex="1">
                    <mxGeometry x="32" y="43" width="40" height="40" as="geometry"/>
                </mxCell>
                <mxCell id="hlMscnQdI2Kzjpkfcxst-18" style="edgeStyle=orthogonalEdgeStyle;curved=1;rounded=0;orthogonalLoop=1;jettySize=auto;html=1;entryX=0.5;entryY=0;entryDx=0;entryDy=0;fontColor=#175182;startArrow=none;startFill=0;endArrow=classicThin;endFill=1;" parent="4pzJMmgSDrH-Xv818-rp-4" edge="1">
                    <mxGeometry relative="1" as="geometry">
                        <mxPoint x="288" y="149.2" as="sourcePoint"/>
                        <mxPoint x="480.14999999999986" y="198.2" as="targetPoint"/>
                        <Array as="points">
                            <mxPoint x="288" y="169"/>
                            <mxPoint x="480" y="169"/>
                        </Array>
                    </mxGeometry>
                </mxCell>
                <mxCell id="hlMscnQdI2Kzjpkfcxst-19" style="edgeStyle=orthogonalEdgeStyle;curved=1;rounded=0;orthogonalLoop=1;jettySize=auto;html=1;exitX=1;exitY=0.75;exitDx=0;exitDy=0;fontColor=#175182;startArrow=none;startFill=0;endArrow=classicThin;endFill=1;" parent="4pzJMmgSDrH-Xv818-rp-4" edge="1">
                    <mxGeometry relative="1" as="geometry">
                        <mxPoint x="288" y="143.99999999999994" as="sourcePoint"/>
                        <mxPoint x="595" y="194.2" as="targetPoint"/>
                        <Array as="points">
                            <mxPoint x="288" y="165"/>
                            <mxPoint x="595" y="165"/>
                        </Array>
                    </mxGeometry>
                </mxCell>
                <mxCell id="pEnOVmmWNWf7s7dqSNy8-1" value="Jenkins agent [container]" style="swimlane;whiteSpace=wrap;html=1;fillColor=#bac8d3;strokeColor=#23445d;startSize=30;" parent="4pzJMmgSDrH-Xv818-rp-4" vertex="1">
                    <mxGeometry x="198" y="194.2" width="100.24" height="120" as="geometry"/>
                </mxCell>
                <mxCell id="pEnOVmmWNWf7s7dqSNy8-2" value="Alpine Ansible&lt;br&gt;Controller" style="sketch=0;pointerEvents=1;shadow=0;dashed=0;html=1;strokeColor=none;labelPosition=center;verticalLabelPosition=bottom;verticalAlign=top;outlineConnect=0;align=center;shape=mxgraph.office.concepts.node_generic;fillColor=#175182;" parent="pEnOVmmWNWf7s7dqSNy8-1" vertex="1">
                    <mxGeometry x="30.120000000000008" y="43" width="40" height="40" as="geometry"/>
                </mxCell>
                <mxCell id="pEnOVmmWNWf7s7dqSNy8-3" style="edgeStyle=orthogonalEdgeStyle;rounded=0;orthogonalLoop=1;jettySize=auto;html=1;exitX=1;exitY=0.75;exitDx=0;exitDy=0;entryX=0.5;entryY=0;entryDx=0;entryDy=0;curved=1;" parent="4pzJMmgSDrH-Xv818-rp-4" source="4pzJMmgSDrH-Xv818-rp-84" target="pEnOVmmWNWf7s7dqSNy8-1" edge="1">
                    <mxGeometry relative="1" as="geometry"/>
                </mxCell>
                <mxCell id="4pzJMmgSDrH-Xv818-rp-112" value="" style="group" parent="4pzJMmgSDrH-Xv818-rp-1" vertex="1" connectable="0">
                    <mxGeometry x="19.760000000000005" y="40" width="291" height="30" as="geometry"/>
                </mxCell>
                <mxCell id="4pzJMmgSDrH-Xv818-rp-110" value="" style="sketch=0;aspect=fixed;html=1;points=[];align=center;image;fontSize=12;image=img/lib/mscae/Virtual_Network.svg;dashed=1;strokeColor=#175182;fontColor=default;fillColor=none;" parent="4pzJMmgSDrH-Xv818-rp-112" vertex="1">
                    <mxGeometry y="5.600000000000023" width="30" height="16.8" as="geometry"/>
                </mxCell>
                <mxCell id="4pzJMmgSDrH-Xv818-rp-111" value="Virtual Network [&lt;i&gt;&lt;font color=&quot;#628f33&quot;&gt;vneta&lt;/font&gt;&lt;/i&gt;] (CIDR &lt;font color=&quot;#628f33&quot;&gt;&lt;b&gt;10.7.2.0/24&lt;/b&gt;&lt;/font&gt;)" style="text;strokeColor=none;align=left;fillColor=none;html=1;verticalAlign=middle;whiteSpace=wrap;rounded=0;fontColor=default;" parent="4pzJMmgSDrH-Xv818-rp-112" vertex="1">
                    <mxGeometry x="31" width="260" height="30" as="geometry"/>
                </mxCell>
                <mxCell id="4pzJMmgSDrH-Xv818-rp-117" style="edgeStyle=orthogonalEdgeStyle;curved=1;rounded=0;orthogonalLoop=1;jettySize=auto;html=1;exitX=0.5;exitY=1;exitDx=0;exitDy=0;entryX=0.5;entryY=1;entryDx=0;entryDy=0;fontColor=default;startArrow=classicThin;startFill=1;endArrow=classicThin;endFill=1;" parent="4pzJMmgSDrH-Xv818-rp-1" source="4pzJMmgSDrH-Xv818-rp-106" target="4pzJMmgSDrH-Xv818-rp-98" edge="1">
                    <mxGeometry relative="1" as="geometry"/>
                </mxCell>
                <mxCell id="4pzJMmgSDrH-Xv818-rp-106" value=":8010" style="fontStyle=0;labelPosition=right;verticalLabelPosition=middle;align=left;verticalAlign=middle;spacingLeft=2;strokeColor=#628F33;fontColor=default;fillColor=none;dashed=1;dashPattern=1 1;" parent="4pzJMmgSDrH-Xv818-rp-1" vertex="1">
                    <mxGeometry x="19.75999999999999" y="280" width="20" height="20" as="geometry"/>
                </mxCell>
                <mxCell id="4pzJMmgSDrH-Xv818-rp-115" style="edgeStyle=orthogonalEdgeStyle;curved=1;rounded=0;orthogonalLoop=1;jettySize=auto;html=1;exitX=1;exitY=0.5;exitDx=0;exitDy=0;exitPerimeter=0;entryX=0.5;entryY=0;entryDx=0;entryDy=0;fontColor=default;startArrow=classicThin;startFill=1;endArrow=classicThin;endFill=1;" parent="4pzJMmgSDrH-Xv818-rp-1" source="4pzJMmgSDrH-Xv818-rp-66" target="4pzJMmgSDrH-Xv818-rp-106" edge="1">
                    <mxGeometry relative="1" as="geometry"/>
                </mxCell>
                <mxCell id="4pzJMmgSDrH-Xv818-rp-66" value="" style="sketch=0;aspect=fixed;pointerEvents=1;shadow=0;dashed=0;html=1;strokeColor=#628F33;labelPosition=center;verticalLabelPosition=bottom;verticalAlign=top;align=center;fillColor=#D5E8D4;shape=mxgraph.mscae.enterprise.gateway;" parent="4pzJMmgSDrH-Xv818-rp-1" vertex="1">
                    <mxGeometry x="10" y="120.79999999999995" width="20" height="20" as="geometry"/>
                </mxCell>
                <mxCell id="4pzJMmgSDrH-Xv818-rp-74" value="Gateway&lt;br&gt;127.0.0.1" style="text;strokeColor=none;align=center;fillColor=none;html=1;verticalAlign=middle;whiteSpace=wrap;rounded=0;fontColor=default;" parent="4pzJMmgSDrH-Xv818-rp-1" vertex="1">
                    <mxGeometry x="20" y="90.8" width="70" height="30" as="geometry"/>
                </mxCell>
                <mxCell id="4pzJMmgSDrH-Xv818-rp-116" value="Port &lt;br&gt;forwarding" style="text;strokeColor=none;align=center;fillColor=none;html=1;verticalAlign=middle;whiteSpace=wrap;rounded=0;fontColor=default;" parent="4pzJMmgSDrH-Xv818-rp-1" vertex="1">
                    <mxGeometry x="20" y="325" width="70" height="30" as="geometry"/>
                </mxCell>
                <mxCell id="4pzJMmgSDrH-Xv818-rp-65" value="" style="group" parent="4pzJMmgSDrH-Xv818-rp-120" vertex="1" connectable="0">
                    <mxGeometry x="369" y="406" width="340" height="110" as="geometry"/>
                </mxCell>
                <mxCell id="4pzJMmgSDrH-Xv818-rp-59" value="" style="group" parent="4pzJMmgSDrH-Xv818-rp-65" vertex="1" connectable="0">
                    <mxGeometry width="140" height="30" as="geometry"/>
                </mxCell>
                <mxCell id="4pzJMmgSDrH-Xv818-rp-57" value="Docker Bind Volume" style="text;strokeColor=none;align=center;fillColor=none;html=1;verticalAlign=middle;whiteSpace=wrap;rounded=0;fontColor=default;" parent="4pzJMmgSDrH-Xv818-rp-59" vertex="1">
                    <mxGeometry x="24.69" width="115.31" height="30" as="geometry"/>
                </mxCell>
                <mxCell id="4pzJMmgSDrH-Xv818-rp-58" value="" style="sketch=0;pointerEvents=1;shadow=0;dashed=0;html=1;strokeColor=none;fillColor=#434445;aspect=fixed;labelPosition=center;verticalLabelPosition=bottom;verticalAlign=top;align=center;outlineConnect=0;shape=mxgraph.vvd.writable_volume;fontColor=default;" parent="4pzJMmgSDrH-Xv818-rp-59" vertex="1">
                    <mxGeometry y="5" width="24.69" height="20" as="geometry"/>
                </mxCell>
                <mxCell id="4pzJMmgSDrH-Xv818-rp-51" value="&lt;br&gt;certs-client [/certs/client]" style="strokeWidth=2;html=1;shape=mxgraph.flowchart.database;whiteSpace=wrap;strokeColor=#175182;fillColor=none;fontColor=default;container=0;" parent="4pzJMmgSDrH-Xv818-rp-65" vertex="1">
                    <mxGeometry x="250" y="40" width="80" height="60" as="geometry"/>
                </mxCell>
                <mxCell id="4pzJMmgSDrH-Xv818-rp-53" value="&lt;br&gt;certs-ca [/certs/ca]" style="strokeWidth=2;html=1;shape=mxgraph.flowchart.database;whiteSpace=wrap;strokeColor=#175182;fillColor=none;fontColor=default;container=0;" parent="4pzJMmgSDrH-Xv818-rp-65" vertex="1">
                    <mxGeometry x="130" y="40" width="80" height="60" as="geometry"/>
                </mxCell>
                <mxCell id="4pzJMmgSDrH-Xv818-rp-52" value="&lt;br&gt;data&lt;br&gt;[/var/jenkins]" style="strokeWidth=2;html=1;shape=mxgraph.flowchart.database;whiteSpace=wrap;strokeColor=#000000;fillColor=none;fontColor=default;container=0;" parent="4pzJMmgSDrH-Xv818-rp-65" vertex="1">
                    <mxGeometry x="10" y="40" width="80" height="60" as="geometry"/>
                </mxCell>
                <mxCell id="4pzJMmgSDrH-Xv818-rp-55" value="" style="rounded=1;whiteSpace=wrap;html=1;strokeColor=#000000;fontColor=default;fillColor=none;dashed=1;container=0;" parent="4pzJMmgSDrH-Xv818-rp-65" vertex="1">
                    <mxGeometry y="30" width="340" height="80" as="geometry"/>
                </mxCell>
                <mxCell id="4pzJMmgSDrH-Xv818-rp-72" style="edgeStyle=orthogonalEdgeStyle;curved=1;rounded=0;orthogonalLoop=1;jettySize=auto;html=1;entryX=0;entryY=0.5;entryDx=0;entryDy=0;fontColor=default;exitX=0.5;exitY=1;exitDx=0;exitDy=0;startArrow=none;startFill=0;endArrow=classicThin;endFill=1;" parent="4pzJMmgSDrH-Xv818-rp-120" source="4pzJMmgSDrH-Xv818-rp-33" target="4pzJMmgSDrH-Xv818-rp-55" edge="1">
                    <mxGeometry relative="1" as="geometry">
                        <mxPoint x="169" y="222" as="sourcePoint"/>
                        <Array as="points">
                            <mxPoint x="270" y="266"/>
                            <mxPoint x="270" y="476"/>
                        </Array>
                    </mxGeometry>
                </mxCell>
            </root>
        </mxGraphModel>
    </diagram>
    <diagram name="Jenkins_architecture" id="yEpuj_0m31I55sc5ZLyw">
        <mxGraphModel dx="1047" dy="414" grid="1" gridSize="10" guides="1" tooltips="1" connect="1" arrows="1" fold="1" page="1" pageScale="1" pageWidth="850" pageHeight="1100" math="0" shadow="0">
            <root>
                <mxCell id="FDpC9_-I64iNpZ3BSrVQ-0"/>
                <mxCell id="FDpC9_-I64iNpZ3BSrVQ-1" parent="FDpC9_-I64iNpZ3BSrVQ-0"/>
                <mxCell id="FDpC9_-I64iNpZ3BSrVQ-2" value="" style="group" parent="FDpC9_-I64iNpZ3BSrVQ-1" vertex="1" connectable="0">
                    <mxGeometry x="30" y="40" width="814" height="590" as="geometry"/>
                </mxCell>
                <mxCell id="FDpC9_-I64iNpZ3BSrVQ-3" value="" style="rounded=0;whiteSpace=wrap;html=1;strokeWidth=2;strokeColor=none;" parent="FDpC9_-I64iNpZ3BSrVQ-2" vertex="1">
                    <mxGeometry x="-14" y="-20" width="828" height="610" as="geometry"/>
                </mxCell>
                <mxCell id="FDpC9_-I64iNpZ3BSrVQ-4" value="Host Machine [jenkins] &lt;br&gt;Application URL: http://jenkins:8010 or http://127.0.0.1:8010" style="swimlane;whiteSpace=wrap;html=1;fillColor=#647687;strokeColor=#314354;startSize=40;fontColor=#ffffff;" parent="FDpC9_-I64iNpZ3BSrVQ-2" vertex="1">
                    <mxGeometry width="800" height="560" as="geometry"/>
                </mxCell>
                <mxCell id="FDpC9_-I64iNpZ3BSrVQ-5" value="" style="rounded=0;whiteSpace=wrap;html=1;strokeColor=#628F33;fontColor=default;fillColor=none;dashed=1;" parent="FDpC9_-I64iNpZ3BSrVQ-4" vertex="1">
                    <mxGeometry x="20" y="70" width="759" height="470" as="geometry"/>
                </mxCell>
                <mxCell id="FDpC9_-I64iNpZ3BSrVQ-6" value="Virtual Machine [Docker host] (&lt;font color=&quot;#628f33&quot;&gt;10.7.2.10/24&lt;/font&gt;)" style="swimlane;whiteSpace=wrap;html=1;fillColor=#dae8fc;strokeColor=#6c8ebf;" parent="FDpC9_-I64iNpZ3BSrVQ-4" vertex="1">
                    <mxGeometry x="92" y="85.8" width="679.65" height="442" as="geometry"/>
                </mxCell>
                <mxCell id="FDpC9_-I64iNpZ3BSrVQ-7" value="" style="rounded=0;whiteSpace=wrap;html=1;dashed=1;strokeColor=#175182;fillColor=none;" parent="FDpC9_-I64iNpZ3BSrVQ-6" vertex="1">
                    <mxGeometry x="60" y="63.2" width="608" height="256.8" as="geometry"/>
                </mxCell>
                <mxCell id="FDpC9_-I64iNpZ3BSrVQ-8" style="edgeStyle=orthogonalEdgeStyle;curved=1;rounded=0;orthogonalLoop=1;jettySize=auto;html=1;exitX=1;exitY=0.5;exitDx=0;exitDy=0;exitPerimeter=0;entryX=0;entryY=0.5;entryDx=0;entryDy=0;fontColor=default;startArrow=classicThin;startFill=1;endArrow=classicThin;endFill=1;" parent="FDpC9_-I64iNpZ3BSrVQ-6" source="FDpC9_-I64iNpZ3BSrVQ-10" target="FDpC9_-I64iNpZ3BSrVQ-13" edge="1">
                    <mxGeometry relative="1" as="geometry"/>
                </mxCell>
                <mxCell id="FDpC9_-I64iNpZ3BSrVQ-9" style="edgeStyle=orthogonalEdgeStyle;curved=1;rounded=0;orthogonalLoop=1;jettySize=auto;html=1;exitX=0;exitY=0.5;exitDx=0;exitDy=0;exitPerimeter=0;fontColor=default;startArrow=classicThin;startFill=1;endArrow=classicThin;endFill=1;" parent="FDpC9_-I64iNpZ3BSrVQ-6" source="FDpC9_-I64iNpZ3BSrVQ-10" target="FDpC9_-I64iNpZ3BSrVQ-23" edge="1">
                    <mxGeometry relative="1" as="geometry"/>
                </mxCell>
                <mxCell id="FDpC9_-I64iNpZ3BSrVQ-10" value="" style="sketch=0;aspect=fixed;pointerEvents=1;shadow=0;dashed=0;html=1;strokeColor=none;labelPosition=center;verticalLabelPosition=bottom;verticalAlign=top;align=center;fillColor=#175182;shape=mxgraph.mscae.enterprise.gateway;fontColor=default;" parent="FDpC9_-I64iNpZ3BSrVQ-6" vertex="1">
                    <mxGeometry x="50" y="127.19999999999999" width="20" height="20" as="geometry"/>
                </mxCell>
                <mxCell id="FDpC9_-I64iNpZ3BSrVQ-11" value="Jenkins Controller [container]" style="swimlane;whiteSpace=wrap;html=1;fillColor=#647687;strokeColor=#314354;fontColor=#ffffff;" parent="FDpC9_-I64iNpZ3BSrVQ-6" vertex="1">
                    <mxGeometry x="88" y="79.2" width="200" height="100.8" as="geometry"/>
                </mxCell>
                <mxCell id="FDpC9_-I64iNpZ3BSrVQ-12" value="Built-in Node" style="sketch=0;pointerEvents=1;shadow=0;dashed=0;html=1;strokeColor=none;labelPosition=center;verticalLabelPosition=bottom;verticalAlign=top;outlineConnect=0;align=center;shape=mxgraph.office.concepts.node_generic;fillColor=#CCCBCB;" parent="FDpC9_-I64iNpZ3BSrVQ-11" vertex="1">
                    <mxGeometry x="90" y="30.799999999999997" width="40" height="40" as="geometry"/>
                </mxCell>
                <mxCell id="FDpC9_-I64iNpZ3BSrVQ-13" value=":8080" style="fontStyle=0;labelPosition=right;verticalLabelPosition=middle;align=left;verticalAlign=middle;spacingLeft=2;dashed=1;strokeColor=#175182;fontColor=default;fillColor=none;dashPattern=1 1;" parent="FDpC9_-I64iNpZ3BSrVQ-11" vertex="1">
                    <mxGeometry y="48.799999999999955" width="20" height="20" as="geometry"/>
                </mxCell>
                <mxCell id="FDpC9_-I64iNpZ3BSrVQ-14" value=":50000" style="fontStyle=0;labelPosition=right;verticalLabelPosition=middle;align=left;verticalAlign=middle;spacingLeft=2;dashed=1;strokeColor=#175182;fontColor=default;fillColor=none;dashPattern=1 1;" parent="FDpC9_-I64iNpZ3BSrVQ-11" vertex="1">
                    <mxGeometry x="180" y="48.799999999999955" width="20" height="20" as="geometry"/>
                </mxCell>
                <mxCell id="FDpC9_-I64iNpZ3BSrVQ-22" value="Gateway&lt;br&gt;172.21.0.1" style="text;strokeColor=none;align=center;fillColor=none;html=1;verticalAlign=middle;whiteSpace=wrap;rounded=0;fontColor=default;" parent="FDpC9_-I64iNpZ3BSrVQ-6" vertex="1">
                    <mxGeometry y="97.2" width="60" height="30" as="geometry"/>
                </mxCell>
                <mxCell id="FDpC9_-I64iNpZ3BSrVQ-23" value=":8080" style="fontStyle=0;labelPosition=right;verticalLabelPosition=middle;align=left;verticalAlign=middle;spacingLeft=2;strokeColor=#175182;fontColor=default;fillColor=none;dashed=1;dashPattern=1 1;" parent="FDpC9_-I64iNpZ3BSrVQ-6" vertex="1">
                    <mxGeometry y="194.2" width="20" height="20" as="geometry"/>
                </mxCell>
                <mxCell id="FDpC9_-I64iNpZ3BSrVQ-24" value="" style="group" parent="FDpC9_-I64iNpZ3BSrVQ-6" vertex="1" connectable="0">
                    <mxGeometry x="59.99999999999997" y="33.200000000000045" width="355.35" height="30" as="geometry"/>
                </mxCell>
                <mxCell id="FDpC9_-I64iNpZ3BSrVQ-25" value="Docker Bridge Network [&lt;i&gt;&lt;font color=&quot;#175182&quot;&gt;jenkins_net&lt;/font&gt;&lt;/i&gt;] (CIDR &lt;font color=&quot;#175182&quot;&gt;&lt;b&gt;172.21.0.1/16&lt;/b&gt;&lt;/font&gt;)" style="text;strokeColor=none;align=center;fillColor=none;html=1;verticalAlign=middle;whiteSpace=wrap;rounded=0;" parent="FDpC9_-I64iNpZ3BSrVQ-24" vertex="1">
                    <mxGeometry x="20.7617647058824" width="334.5882352941177" height="30" as="geometry"/>
                </mxCell>
                <mxCell id="FDpC9_-I64iNpZ3BSrVQ-26" value="" style="sketch=0;aspect=fixed;html=1;points=[];align=center;image;fontSize=12;image=img/lib/mscae/Virtual_Network.svg;dashed=1;strokeColor=#175182;fillColor=#175182;" parent="FDpC9_-I64iNpZ3BSrVQ-24" vertex="1">
                    <mxGeometry y="7" width="28.421052631578952" height="15.915789473684212" as="geometry"/>
                </mxCell>
                <mxCell id="FDpC9_-I64iNpZ3BSrVQ-27" value="Jenkins agent [container]" style="swimlane;whiteSpace=wrap;html=1;fillColor=#bac8d3;strokeColor=#23445d;startSize=30;" parent="FDpC9_-I64iNpZ3BSrVQ-6" vertex="1">
                    <mxGeometry x="313.88" y="193.2" width="100.24" height="120" as="geometry"/>
                </mxCell>
                <mxCell id="FDpC9_-I64iNpZ3BSrVQ-28" value="CentOS Node" style="sketch=0;pointerEvents=1;shadow=0;dashed=0;html=1;strokeColor=none;labelPosition=center;verticalLabelPosition=bottom;verticalAlign=top;outlineConnect=0;align=center;shape=mxgraph.office.concepts.node_generic;fillColor=#7FBA42;" parent="FDpC9_-I64iNpZ3BSrVQ-27" vertex="1">
                    <mxGeometry x="32" y="40.3" width="40" height="40" as="geometry"/>
                </mxCell>
                <mxCell id="FDpC9_-I64iNpZ3BSrVQ-29" style="edgeStyle=orthogonalEdgeStyle;rounded=0;orthogonalLoop=1;jettySize=auto;html=1;exitX=1;exitY=1;exitDx=0;exitDy=0;curved=1;endArrow=classicThin;endFill=1;entryX=0.5;entryY=0;entryDx=0;entryDy=0;" parent="FDpC9_-I64iNpZ3BSrVQ-6" source="FDpC9_-I64iNpZ3BSrVQ-14" target="FDpC9_-I64iNpZ3BSrVQ-27" edge="1">
                    <mxGeometry relative="1" as="geometry"/>
                </mxCell>
                <mxCell id="FDpC9_-I64iNpZ3BSrVQ-30" value="Jenkins agent [container]" style="swimlane;whiteSpace=wrap;html=1;fillColor=#bac8d3;strokeColor=#23445d;startSize=30;" parent="FDpC9_-I64iNpZ3BSrVQ-6" vertex="1">
                    <mxGeometry x="545" y="193.2" width="100.24" height="120" as="geometry"/>
                </mxCell>
                <mxCell id="FDpC9_-I64iNpZ3BSrVQ-31" value="Ubuntu Node" style="sketch=0;pointerEvents=1;shadow=0;dashed=0;html=1;strokeColor=none;labelPosition=center;verticalLabelPosition=bottom;verticalAlign=top;outlineConnect=0;align=center;shape=mxgraph.office.concepts.node_generic;fillColor=#DA4026;" parent="FDpC9_-I64iNpZ3BSrVQ-30" vertex="1">
                    <mxGeometry x="30.120000000000008" y="42" width="40" height="40" as="geometry"/>
                </mxCell>
                <mxCell id="FDpC9_-I64iNpZ3BSrVQ-32" value="Jenkins agent [container]" style="swimlane;whiteSpace=wrap;html=1;fillColor=#bac8d3;strokeColor=#23445d;startSize=30;" parent="FDpC9_-I64iNpZ3BSrVQ-6" vertex="1">
                    <mxGeometry x="430.03" y="193.2" width="100.24" height="120" as="geometry"/>
                </mxCell>
                <mxCell id="FDpC9_-I64iNpZ3BSrVQ-33" value="Debian Node" style="sketch=0;pointerEvents=1;shadow=0;dashed=0;html=1;strokeColor=none;fillColor=#505050;labelPosition=center;verticalLabelPosition=bottom;verticalAlign=top;outlineConnect=0;align=center;shape=mxgraph.office.concepts.node_generic;" parent="FDpC9_-I64iNpZ3BSrVQ-32" vertex="1">
                    <mxGeometry x="32" y="43" width="40" height="40" as="geometry"/>
                </mxCell>
                <mxCell id="FDpC9_-I64iNpZ3BSrVQ-34" style="edgeStyle=orthogonalEdgeStyle;curved=1;rounded=0;orthogonalLoop=1;jettySize=auto;html=1;entryX=0.5;entryY=0;entryDx=0;entryDy=0;fontColor=#175182;startArrow=none;startFill=0;endArrow=classicThin;endFill=1;" parent="FDpC9_-I64iNpZ3BSrVQ-6" edge="1">
                    <mxGeometry relative="1" as="geometry">
                        <mxPoint x="288" y="149.2" as="sourcePoint"/>
                        <mxPoint x="480.14999999999986" y="198.2" as="targetPoint"/>
                        <Array as="points">
                            <mxPoint x="288" y="169"/>
                            <mxPoint x="480" y="169"/>
                        </Array>
                    </mxGeometry>
                </mxCell>
                <mxCell id="FDpC9_-I64iNpZ3BSrVQ-35" style="edgeStyle=orthogonalEdgeStyle;curved=1;rounded=0;orthogonalLoop=1;jettySize=auto;html=1;exitX=1;exitY=0.75;exitDx=0;exitDy=0;fontColor=#175182;startArrow=none;startFill=0;endArrow=classicThin;endFill=1;" parent="FDpC9_-I64iNpZ3BSrVQ-6" edge="1">
                    <mxGeometry relative="1" as="geometry">
                        <mxPoint x="288" y="143.99999999999994" as="sourcePoint"/>
                        <mxPoint x="595" y="194.2" as="targetPoint"/>
                        <Array as="points">
                            <mxPoint x="288" y="165"/>
                            <mxPoint x="595" y="165"/>
                        </Array>
                    </mxGeometry>
                </mxCell>
                <mxCell id="FDpC9_-I64iNpZ3BSrVQ-36" value="Jenkins agent [container]" style="swimlane;whiteSpace=wrap;html=1;fillColor=#bac8d3;strokeColor=#23445d;startSize=30;" parent="FDpC9_-I64iNpZ3BSrVQ-6" vertex="1">
                    <mxGeometry x="198" y="194.2" width="100.24" height="120" as="geometry"/>
                </mxCell>
                <mxCell id="FDpC9_-I64iNpZ3BSrVQ-37" value="Alpine Ansible&lt;br&gt;Controller" style="sketch=0;pointerEvents=1;shadow=0;dashed=0;html=1;strokeColor=none;labelPosition=center;verticalLabelPosition=bottom;verticalAlign=top;outlineConnect=0;align=center;shape=mxgraph.office.concepts.node_generic;fillColor=#175182;" parent="FDpC9_-I64iNpZ3BSrVQ-36" vertex="1">
                    <mxGeometry x="30.120000000000008" y="43" width="40" height="40" as="geometry"/>
                </mxCell>
                <mxCell id="FDpC9_-I64iNpZ3BSrVQ-38" style="edgeStyle=orthogonalEdgeStyle;rounded=0;orthogonalLoop=1;jettySize=auto;html=1;exitX=1;exitY=0.75;exitDx=0;exitDy=0;entryX=0.5;entryY=0;entryDx=0;entryDy=0;curved=1;" parent="FDpC9_-I64iNpZ3BSrVQ-6" source="FDpC9_-I64iNpZ3BSrVQ-14" target="FDpC9_-I64iNpZ3BSrVQ-36" edge="1">
                    <mxGeometry relative="1" as="geometry"/>
                </mxCell>
                <mxCell id="FDpC9_-I64iNpZ3BSrVQ-39" value="" style="group" parent="FDpC9_-I64iNpZ3BSrVQ-4" vertex="1" connectable="0">
                    <mxGeometry x="19.760000000000005" y="40" width="291" height="30" as="geometry"/>
                </mxCell>
                <mxCell id="FDpC9_-I64iNpZ3BSrVQ-40" value="" style="sketch=0;aspect=fixed;html=1;points=[];align=center;image;fontSize=12;image=img/lib/mscae/Virtual_Network.svg;dashed=1;strokeColor=#175182;fontColor=default;fillColor=none;" parent="FDpC9_-I64iNpZ3BSrVQ-39" vertex="1">
                    <mxGeometry y="5.600000000000023" width="30" height="16.8" as="geometry"/>
                </mxCell>
                <mxCell id="FDpC9_-I64iNpZ3BSrVQ-41" value="Virtual Network [&lt;i&gt;&lt;font color=&quot;#628f33&quot;&gt;vneta&lt;/font&gt;&lt;/i&gt;] (CIDR &lt;font color=&quot;#628f33&quot;&gt;&lt;b&gt;10.7.2.0/24&lt;/b&gt;&lt;/font&gt;)" style="text;strokeColor=none;align=left;fillColor=none;html=1;verticalAlign=middle;whiteSpace=wrap;rounded=0;fontColor=default;" parent="FDpC9_-I64iNpZ3BSrVQ-39" vertex="1">
                    <mxGeometry x="31" width="260" height="30" as="geometry"/>
                </mxCell>
                <mxCell id="FDpC9_-I64iNpZ3BSrVQ-42" style="edgeStyle=orthogonalEdgeStyle;curved=1;rounded=0;orthogonalLoop=1;jettySize=auto;html=1;exitX=0.5;exitY=1;exitDx=0;exitDy=0;entryX=0.5;entryY=1;entryDx=0;entryDy=0;fontColor=default;startArrow=classicThin;startFill=1;endArrow=classicThin;endFill=1;" parent="FDpC9_-I64iNpZ3BSrVQ-4" source="FDpC9_-I64iNpZ3BSrVQ-43" target="FDpC9_-I64iNpZ3BSrVQ-23" edge="1">
                    <mxGeometry relative="1" as="geometry"/>
                </mxCell>
                <mxCell id="FDpC9_-I64iNpZ3BSrVQ-43" value=":8010" style="fontStyle=0;labelPosition=right;verticalLabelPosition=middle;align=left;verticalAlign=middle;spacingLeft=2;strokeColor=#628F33;fontColor=default;fillColor=none;dashed=1;dashPattern=1 1;" parent="FDpC9_-I64iNpZ3BSrVQ-4" vertex="1">
                    <mxGeometry x="19.75999999999999" y="280" width="20" height="20" as="geometry"/>
                </mxCell>
                <mxCell id="FDpC9_-I64iNpZ3BSrVQ-44" style="edgeStyle=orthogonalEdgeStyle;curved=1;rounded=0;orthogonalLoop=1;jettySize=auto;html=1;exitX=1;exitY=0.5;exitDx=0;exitDy=0;exitPerimeter=0;entryX=0.5;entryY=0;entryDx=0;entryDy=0;fontColor=default;startArrow=classicThin;startFill=1;endArrow=classicThin;endFill=1;" parent="FDpC9_-I64iNpZ3BSrVQ-4" source="FDpC9_-I64iNpZ3BSrVQ-45" target="FDpC9_-I64iNpZ3BSrVQ-43" edge="1">
                    <mxGeometry relative="1" as="geometry"/>
                </mxCell>
                <mxCell id="FDpC9_-I64iNpZ3BSrVQ-45" value="" style="sketch=0;aspect=fixed;pointerEvents=1;shadow=0;dashed=0;html=1;strokeColor=#628F33;labelPosition=center;verticalLabelPosition=bottom;verticalAlign=top;align=center;fillColor=#D5E8D4;shape=mxgraph.mscae.enterprise.gateway;" parent="FDpC9_-I64iNpZ3BSrVQ-4" vertex="1">
                    <mxGeometry x="10" y="120.79999999999995" width="20" height="20" as="geometry"/>
                </mxCell>
                <mxCell id="FDpC9_-I64iNpZ3BSrVQ-46" value="Gateway&lt;br&gt;127.0.0.1" style="text;strokeColor=none;align=center;fillColor=none;html=1;verticalAlign=middle;whiteSpace=wrap;rounded=0;fontColor=default;" parent="FDpC9_-I64iNpZ3BSrVQ-4" vertex="1">
                    <mxGeometry x="20" y="90.8" width="70" height="30" as="geometry"/>
                </mxCell>
                <mxCell id="FDpC9_-I64iNpZ3BSrVQ-47" value="Port &lt;br&gt;forwarding" style="text;strokeColor=none;align=center;fillColor=none;html=1;verticalAlign=middle;whiteSpace=wrap;rounded=0;fontColor=default;" parent="FDpC9_-I64iNpZ3BSrVQ-4" vertex="1">
                    <mxGeometry x="20" y="325" width="70" height="30" as="geometry"/>
                </mxCell>
                <mxCell id="FDpC9_-I64iNpZ3BSrVQ-48" value="" style="group" parent="FDpC9_-I64iNpZ3BSrVQ-2" vertex="1" connectable="0">
                    <mxGeometry x="369" y="406" width="340" height="110" as="geometry"/>
                </mxCell>
                <mxCell id="FDpC9_-I64iNpZ3BSrVQ-49" value="" style="group" parent="FDpC9_-I64iNpZ3BSrVQ-48" vertex="1" connectable="0">
                    <mxGeometry width="140" height="30" as="geometry"/>
                </mxCell>
                <mxCell id="FDpC9_-I64iNpZ3BSrVQ-50" value="Docker Bind Volume" style="text;strokeColor=none;align=center;fillColor=none;html=1;verticalAlign=middle;whiteSpace=wrap;rounded=0;fontColor=default;" parent="FDpC9_-I64iNpZ3BSrVQ-49" vertex="1">
                    <mxGeometry x="24.69" width="115.31" height="30" as="geometry"/>
                </mxCell>
                <mxCell id="FDpC9_-I64iNpZ3BSrVQ-51" value="" style="sketch=0;pointerEvents=1;shadow=0;dashed=0;html=1;strokeColor=none;fillColor=#434445;aspect=fixed;labelPosition=center;verticalLabelPosition=bottom;verticalAlign=top;align=center;outlineConnect=0;shape=mxgraph.vvd.writable_volume;fontColor=default;" parent="FDpC9_-I64iNpZ3BSrVQ-49" vertex="1">
                    <mxGeometry y="5" width="24.69" height="20" as="geometry"/>
                </mxCell>
                <mxCell id="FDpC9_-I64iNpZ3BSrVQ-52" value="&lt;br&gt;certs-client [/certs/client]" style="strokeWidth=2;html=1;shape=mxgraph.flowchart.database;whiteSpace=wrap;strokeColor=#175182;fillColor=none;fontColor=default;container=0;" parent="FDpC9_-I64iNpZ3BSrVQ-48" vertex="1">
                    <mxGeometry x="250" y="40" width="80" height="60" as="geometry"/>
                </mxCell>
                <mxCell id="FDpC9_-I64iNpZ3BSrVQ-53" value="&lt;br&gt;certs-ca [/certs/ca]" style="strokeWidth=2;html=1;shape=mxgraph.flowchart.database;whiteSpace=wrap;strokeColor=#175182;fillColor=none;fontColor=default;container=0;" parent="FDpC9_-I64iNpZ3BSrVQ-48" vertex="1">
                    <mxGeometry x="130" y="40" width="80" height="60" as="geometry"/>
                </mxCell>
                <mxCell id="FDpC9_-I64iNpZ3BSrVQ-54" value="&lt;br&gt;data&lt;br&gt;[/var/jenkins]" style="strokeWidth=2;html=1;shape=mxgraph.flowchart.database;whiteSpace=wrap;strokeColor=#000000;fillColor=none;fontColor=default;container=0;" parent="FDpC9_-I64iNpZ3BSrVQ-48" vertex="1">
                    <mxGeometry x="10" y="40" width="80" height="60" as="geometry"/>
                </mxCell>
                <mxCell id="FDpC9_-I64iNpZ3BSrVQ-55" value="" style="rounded=1;whiteSpace=wrap;html=1;strokeColor=#000000;fontColor=default;fillColor=none;dashed=1;container=0;" parent="FDpC9_-I64iNpZ3BSrVQ-48" vertex="1">
                    <mxGeometry y="30" width="340" height="80" as="geometry"/>
                </mxCell>
                <mxCell id="FDpC9_-I64iNpZ3BSrVQ-56" style="edgeStyle=orthogonalEdgeStyle;curved=1;rounded=0;orthogonalLoop=1;jettySize=auto;html=1;entryX=0;entryY=0.5;entryDx=0;entryDy=0;fontColor=default;exitX=0.5;exitY=1;exitDx=0;exitDy=0;startArrow=none;startFill=0;endArrow=classicThin;endFill=1;" parent="FDpC9_-I64iNpZ3BSrVQ-2" source="FDpC9_-I64iNpZ3BSrVQ-11" target="FDpC9_-I64iNpZ3BSrVQ-55" edge="1">
                    <mxGeometry relative="1" as="geometry">
                        <mxPoint x="169" y="222" as="sourcePoint"/>
                        <Array as="points">
                            <mxPoint x="270" y="266"/>
                            <mxPoint x="270" y="476"/>
                        </Array>
                    </mxGeometry>
                </mxCell>
            </root>
        </mxGraphModel>
    </diagram>
    <diagram id="RfY-EpLTciv98mzlLAms" name="aws_app_architecture">
        <mxGraphModel dx="1047" dy="414" grid="1" gridSize="10" guides="1" tooltips="1" connect="1" arrows="1" fold="1" page="1" pageScale="1" pageWidth="850" pageHeight="1100" math="0" shadow="0">
            <root>
                <mxCell id="0"/>
                <mxCell id="1" parent="0"/>
                <mxCell id="7pn_shuLcHWdzyvj1WbH-1" value="" style="rounded=0;whiteSpace=wrap;html=1;strokeColor=none;" parent="1" vertex="1">
                    <mxGeometry x="90" y="50" width="540" height="370" as="geometry"/>
                </mxCell>
                <mxCell id="Cgg4ve4FKjLwKs3c4RqH-1" value="Region - US East N. Virginia" style="points=[[0,0],[0.25,0],[0.5,0],[0.75,0],[1,0],[1,0.25],[1,0.5],[1,0.75],[1,1],[0.75,1],[0.5,1],[0.25,1],[0,1],[0,0.75],[0,0.5],[0,0.25]];outlineConnect=0;gradientColor=none;html=1;whiteSpace=wrap;fontSize=12;fontStyle=0;container=1;pointerEvents=0;collapsible=0;recursiveResize=0;shape=mxgraph.aws4.group;grIcon=mxgraph.aws4.group_region;strokeColor=#147EBA;fillColor=none;verticalAlign=top;align=left;spacingLeft=30;fontColor=#147EBA;dashed=1;" parent="1" vertex="1">
                    <mxGeometry x="120" y="70" width="360" height="330" as="geometry"/>
                </mxCell>
                <mxCell id="Cgg4ve4FKjLwKs3c4RqH-3" value="Availability Zone&#10;us-east-1e" style="fillColor=none;strokeColor=#147EBA;dashed=1;verticalAlign=top;fontStyle=0;fontColor=#147EBA;" parent="Cgg4ve4FKjLwKs3c4RqH-1" vertex="1">
                    <mxGeometry x="40" y="40" width="160" height="250" as="geometry"/>
                </mxCell>
                <mxCell id="Cgg4ve4FKjLwKs3c4RqH-4" value="VPC" style="points=[[0,0],[0.25,0],[0.5,0],[0.75,0],[1,0],[1,0.25],[1,0.5],[1,0.75],[1,1],[0.75,1],[0.5,1],[0.25,1],[0,1],[0,0.75],[0,0.5],[0,0.25]];outlineConnect=0;gradientColor=none;html=1;whiteSpace=wrap;fontSize=12;fontStyle=0;container=0;pointerEvents=0;collapsible=0;recursiveResize=0;shape=mxgraph.aws4.group;grIcon=mxgraph.aws4.group_vpc;strokeColor=#248814;fillColor=none;verticalAlign=top;align=left;spacingLeft=30;fontColor=#AAB7B8;dashed=0;" parent="Cgg4ve4FKjLwKs3c4RqH-1" vertex="1">
                    <mxGeometry x="20" y="90" width="300" height="180" as="geometry"/>
                </mxCell>
                <mxCell id="Cgg4ve4FKjLwKs3c4RqH-6" value="Public subnet&lt;br&gt;us-east-1e" style="points=[[0,0],[0.25,0],[0.5,0],[0.75,0],[1,0],[1,0.25],[1,0.5],[1,0.75],[1,1],[0.75,1],[0.5,1],[0.25,1],[0,1],[0,0.75],[0,0.5],[0,0.25]];outlineConnect=0;gradientColor=none;html=1;whiteSpace=wrap;fontSize=12;fontStyle=0;container=1;pointerEvents=0;collapsible=0;recursiveResize=0;shape=mxgraph.aws4.group;grIcon=mxgraph.aws4.group_security_group;grStroke=0;strokeColor=#248814;fillColor=#E9F3E6;verticalAlign=top;align=left;spacingLeft=30;fontColor=#248814;dashed=0;" parent="Cgg4ve4FKjLwKs3c4RqH-1" vertex="1">
                    <mxGeometry x="60" y="120" width="120" height="90" as="geometry"/>
                </mxCell>
                <mxCell id="Cgg4ve4FKjLwKs3c4RqH-7" value="cdp-jenkins-ec2-instance-1" style="sketch=0;points=[[0,0,0],[0.25,0,0],[0.5,0,0],[0.75,0,0],[1,0,0],[0,1,0],[0.25,1,0],[0.5,1,0],[0.75,1,0],[1,1,0],[0,0.25,0],[0,0.5,0],[0,0.75,0],[1,0.25,0],[1,0.5,0],[1,0.75,0]];outlineConnect=0;fontColor=#232F3E;gradientColor=#F78E04;gradientDirection=north;fillColor=#D05C17;strokeColor=#ffffff;dashed=0;verticalLabelPosition=bottom;verticalAlign=top;align=center;html=1;fontSize=12;fontStyle=0;aspect=fixed;shape=mxgraph.aws4.resourceIcon;resIcon=mxgraph.aws4.ec2;" parent="Cgg4ve4FKjLwKs3c4RqH-6" vertex="1">
                    <mxGeometry x="20" y="40" width="40" height="40" as="geometry"/>
                </mxCell>
                <mxCell id="Cgg4ve4FKjLwKs3c4RqH-13" value="cdp-public-rtb" style="outlineConnect=0;dashed=0;verticalLabelPosition=bottom;verticalAlign=top;align=center;html=1;shape=mxgraph.aws3.router;fillColor=#F58536;gradientColor=none;" parent="Cgg4ve4FKjLwKs3c4RqH-1" vertex="1">
                    <mxGeometry x="230" y="180" width="40" height="40" as="geometry"/>
                </mxCell>
                <mxCell id="Cgg4ve4FKjLwKs3c4RqH-20" value="cdp-igw" style="outlineConnect=0;dashed=0;verticalLabelPosition=bottom;verticalAlign=top;align=center;html=1;shape=mxgraph.aws3.internet_gateway;fillColor=#F58536;gradientColor=none;" parent="Cgg4ve4FKjLwKs3c4RqH-1" vertex="1">
                    <mxGeometry x="300" y="180" width="40" height="40" as="geometry"/>
                </mxCell>
                <mxCell id="Cgg4ve4FKjLwKs3c4RqH-21" style="edgeStyle=orthogonalEdgeStyle;rounded=0;orthogonalLoop=1;jettySize=auto;html=1;exitX=1;exitY=0.5;exitDx=0;exitDy=0;exitPerimeter=0;startArrow=classic;startFill=1;" parent="Cgg4ve4FKjLwKs3c4RqH-1" source="Cgg4ve4FKjLwKs3c4RqH-13" target="Cgg4ve4FKjLwKs3c4RqH-20" edge="1">
                    <mxGeometry relative="1" as="geometry"/>
                </mxCell>
                <mxCell id="Cgg4ve4FKjLwKs3c4RqH-24" style="edgeStyle=orthogonalEdgeStyle;curved=1;rounded=0;orthogonalLoop=1;jettySize=auto;html=1;exitX=0.5;exitY=1;exitDx=0;exitDy=0;entryX=0;entryY=0.5;entryDx=0;entryDy=0;entryPerimeter=0;startArrow=classic;startFill=1;" parent="Cgg4ve4FKjLwKs3c4RqH-1" source="qugGGy4hhlYSxjnMvsWM-2" target="Cgg4ve4FKjLwKs3c4RqH-13" edge="1">
                    <mxGeometry relative="1" as="geometry"/>
                </mxCell>
                <mxCell id="qugGGy4hhlYSxjnMvsWM-8" style="edgeStyle=orthogonalEdgeStyle;curved=1;rounded=0;orthogonalLoop=1;jettySize=auto;html=1;exitX=0;exitY=0.5;exitDx=0;exitDy=0;startArrow=classic;startFill=1;" parent="Cgg4ve4FKjLwKs3c4RqH-1" source="qugGGy4hhlYSxjnMvsWM-2" target="Cgg4ve4FKjLwKs3c4RqH-7" edge="1">
                    <mxGeometry relative="1" as="geometry"/>
                </mxCell>
                <mxCell id="qugGGy4hhlYSxjnMvsWM-2" value="sg-http-8080&#10;sg-ssh-22" style="fontStyle=0;labelPosition=right;verticalLabelPosition=middle;align=left;verticalAlign=middle;spacingLeft=2;fillColor=none;strokeColor=#628F33;dashed=1;" parent="Cgg4ve4FKjLwKs3c4RqH-1" vertex="1">
                    <mxGeometry x="160" y="155" width="20" height="20" as="geometry"/>
                </mxCell>
                <mxCell id="Cgg4ve4FKjLwKs3c4RqH-26" value="Internet" style="outlineConnect=0;dashed=0;verticalLabelPosition=bottom;verticalAlign=top;align=center;html=1;shape=mxgraph.aws3.internet_2;fillColor=#D2D3D3;gradientColor=none;" parent="1" vertex="1">
                    <mxGeometry x="520" y="230" width="80" height="54" as="geometry"/>
                </mxCell>
                <mxCell id="Cgg4ve4FKjLwKs3c4RqH-27" style="rounded=0;orthogonalLoop=1;jettySize=auto;html=1;exitX=1;exitY=0.5;exitDx=0;exitDy=0;exitPerimeter=0;entryX=0;entryY=0.7;entryDx=0;entryDy=0;entryPerimeter=0;startArrow=classic;startFill=1;" parent="1" source="Cgg4ve4FKjLwKs3c4RqH-20" target="Cgg4ve4FKjLwKs3c4RqH-26" edge="1">
                    <mxGeometry relative="1" as="geometry"/>
                </mxCell>
            </root>
        </mxGraphModel>
    </diagram>
</mxfile>